<mxfile host="app.diagrams.net" modified="2024-05-19T03:13:18.327Z" agent="Mozilla/5.0 (Windows NT 10.0; Win64; x64) AppleWebKit/537.36 (KHTML, like Gecko) Chrome/124.0.0.0 Safari/537.36" version="24.4.3" etag="7IeEyjWgBLeRfGnzD--I" type="github">
  <diagram name="Page-1" id="0AmjILZXN8V3k6GPfbBG">
    <mxGraphModel>
      <root>
        <mxCell id="0" />
        <mxCell id="1" parent="0" />
      </root>
    </mxGraphModel>
  </diagram>
</mxfile>
